<mxfile modified="2019-11-08T06:32:04.202Z" host="www.draw.io" agent="Mozilla/5.0 (Windows NT 10.0; WOW64) AppleWebKit/537.36 (KHTML, like Gecko) Chrome/70.0.3538.110 Safari/537.36" etag="Fzt1yWDJmeOvmz3BuD3l" version="12.2.2" type="github" pages="1">
  <diagram id="dUZNFpzQJ71X7Eg_l8hw" name="第 1 页">
    <mxGraphModel dx="2062" dy="1154" grid="1" gridSize="10" guides="1" tooltips="1" connect="1" arrows="1" fold="1" page="1" pageScale="1" pageWidth="827" pageHeight="1169" math="0" shadow="0">
      <root>
        <mxCell id="0"/>
        <mxCell id="1" parent="0"/>
        <mxCell id="jfqM15fPONT8IPd5Ob16-7" style="edgeStyle=orthogonalEdgeStyle;rounded=0;orthogonalLoop=1;jettySize=auto;html=1;exitX=1;exitY=0.5;exitDx=0;exitDy=0;entryX=0;entryY=0.25;entryDx=0;entryDy=0;" parent="1" source="jfqM15fPONT8IPd5Ob16-1" target="jfqM15fPONT8IPd5Ob16-4" edge="1">
          <mxGeometry relative="1" as="geometry"/>
        </mxCell>
        <mxCell id="jfqM15fPONT8IPd5Ob16-1" value="Lcn（290x4x128）" style="rounded=0;whiteSpace=wrap;html=1;fillColor=#f5f5f5;strokeColor=#666666;fontColor=#333333;" parent="1" vertex="1">
          <mxGeometry x="20" y="240" width="120" height="60" as="geometry"/>
        </mxCell>
        <mxCell id="jfqM15fPONT8IPd5Ob16-8" value="shift" style="edgeStyle=orthogonalEdgeStyle;rounded=0;orthogonalLoop=1;jettySize=auto;html=1;exitX=1;exitY=0.25;exitDx=0;exitDy=0;entryX=0;entryY=0.75;entryDx=0;entryDy=0;" parent="1" source="jfqM15fPONT8IPd5Ob16-2" target="jfqM15fPONT8IPd5Ob16-4" edge="1">
          <mxGeometry relative="1" as="geometry"/>
        </mxCell>
        <mxCell id="jfqM15fPONT8IPd5Ob16-9" value="index" style="edgeStyle=orthogonalEdgeStyle;rounded=0;orthogonalLoop=1;jettySize=auto;html=1;exitX=1;exitY=0.75;exitDx=0;exitDy=0;entryX=0.5;entryY=1;entryDx=0;entryDy=0;" parent="1" source="jfqM15fPONT8IPd5Ob16-2" target="jfqM15fPONT8IPd5Ob16-6" edge="1">
          <mxGeometry relative="1" as="geometry"/>
        </mxCell>
        <mxCell id="jfqM15fPONT8IPd5Ob16-2" value="Matrix(290x(5+7)x5)" style="rounded=0;whiteSpace=wrap;html=1;fillColor=#f5f5f5;strokeColor=#666666;fontColor=#333333;" parent="1" vertex="1">
          <mxGeometry x="20" y="340" width="120" height="60" as="geometry"/>
        </mxCell>
        <mxCell id="jfqM15fPONT8IPd5Ob16-11" style="edgeStyle=orthogonalEdgeStyle;rounded=0;orthogonalLoop=1;jettySize=auto;html=1;exitX=0.25;exitY=1;exitDx=0;exitDy=0;entryX=0.25;entryY=0;entryDx=0;entryDy=0;" parent="1" source="jfqM15fPONT8IPd5Ob16-3" target="jfqM15fPONT8IPd5Ob16-6" edge="1">
          <mxGeometry relative="1" as="geometry"/>
        </mxCell>
        <mxCell id="jfqM15fPONT8IPd5Ob16-3" value="Lmcv((1+3+3+7+7)*32*128)" style="rounded=0;whiteSpace=wrap;html=1;fillColor=#d5e8d4;strokeColor=#82b366;" parent="1" vertex="1">
          <mxGeometry x="290" y="170" width="210" height="60" as="geometry"/>
        </mxCell>
        <mxCell id="jfqM15fPONT8IPd5Ob16-10" style="edgeStyle=orthogonalEdgeStyle;rounded=0;orthogonalLoop=1;jettySize=auto;html=1;exitX=1;exitY=0.5;exitDx=0;exitDy=0;" parent="1" source="jfqM15fPONT8IPd5Ob16-4" target="jfqM15fPONT8IPd5Ob16-6" edge="1">
          <mxGeometry relative="1" as="geometry"/>
        </mxCell>
        <mxCell id="jfqM15fPONT8IPd5Ob16-4" value="Bshifter&amp;nbsp; x 5&amp;nbsp; x 4" style="rounded=1;whiteSpace=wrap;html=1;" parent="1" vertex="1">
          <mxGeometry x="180" y="290" width="120" height="60" as="geometry"/>
        </mxCell>
        <mxCell id="jfqM15fPONT8IPd5Ob16-12" style="edgeStyle=orthogonalEdgeStyle;rounded=0;orthogonalLoop=1;jettySize=auto;html=1;exitX=0.75;exitY=0;exitDx=0;exitDy=0;entryX=0.75;entryY=1;entryDx=0;entryDy=0;" parent="1" source="jfqM15fPONT8IPd5Ob16-6" target="jfqM15fPONT8IPd5Ob16-3" edge="1">
          <mxGeometry relative="1" as="geometry"/>
        </mxCell>
        <mxCell id="jfqM15fPONT8IPd5Ob16-14" style="edgeStyle=orthogonalEdgeStyle;rounded=0;orthogonalLoop=1;jettySize=auto;html=1;exitX=1;exitY=0.5;exitDx=0;exitDy=0;entryX=0;entryY=0.5;entryDx=0;entryDy=0;" parent="1" source="jfqM15fPONT8IPd5Ob16-6" target="jfqM15fPONT8IPd5Ob16-13" edge="1">
          <mxGeometry relative="1" as="geometry"/>
        </mxCell>
        <mxCell id="jfqM15fPONT8IPd5Ob16-6" value="find min" style="rounded=1;whiteSpace=wrap;html=1;" parent="1" vertex="1">
          <mxGeometry x="340" y="290" width="120" height="60" as="geometry"/>
        </mxCell>
        <mxCell id="jfqM15fPONT8IPd5Ob16-13" value="Lmv_o（290x1x128）" style="rounded=0;whiteSpace=wrap;html=1;fillColor=#f5f5f5;strokeColor=#666666;fontColor=#333333;" parent="1" vertex="1">
          <mxGeometry x="540" y="290" width="120" height="60" as="geometry"/>
        </mxCell>
      </root>
    </mxGraphModel>
  </diagram>
</mxfile>
